<svg xmlns="http://www.w3.org/2000/svg"
     width="744.0979"
     height="910.86444"
     viewBox="0 0 210 297"
     version="1.0">
  <defs id="defs4">
    <style type="text/css"
           id="style6">
      .fil0 {
        fill: #0A0B0C
      }

      .fil1 {
        fill: #DA251D
      }

      .fil3 {
        fill: #F8C300
      }

      .fil4 {
        fill: white
      }

      .fil6 {
        fill: #F4F4EC
      }

      .fil7 {
        fill: #FAF6F7
      }

      .fil8 {
        fill: #FDFCFA
      }

      .fil5 {
        fill: white
      }

      .fil2 {
        fill: black;
        fill-rule: nonzero
      }
    </style>
  </defs>
  <g id="Warstwa_x0020_1"
     transform="matrix(1.1551925,0,0,1.1551925,-16.311727,-23.026675)">
    <metadata id="CorelCorpID_0Corel-Layer" />
    <path class="fil0"
          d="M 0,19.967 L 209.972,19.967 L 209.972,226.318 C 210.496,240.0234 203.9595,253.6399 186.2669,255.1711 L 136.2655,255.1711 C 123.0084,255.1714 109.0921,265.937 104.9162,277.0332 C 101.3762,267.5992 89.1357,255.6805 75.6724,255.1711 L 25.8771,255.1711 C 8.7961,253.1989 0.1612,240.888 0.0003,226.2724 L 0.0003,19.9674 L 0,19.967 z "
          id="path10"
          style="fill:#0a0b0c" />
    <path class="fil1"
          d="M 2.4372,22.4913 L 207.5382,22.4913 L 207.5382,224.5403 C 208.3417,239.0461 201.9368,252.7633 184.383,252.7919 L 135.5416,252.7919 C 123.6074,252.9423 110.8612,261.5044 104.9803,271.3866 C 99.8285,262.6633 87.8263,252.9979 76.3542,252.7919 L 27.7141,252.7919 C 10.6132,252.5393 2.3533,239.7806 2.4376,224.4957 L 2.4376,22.4917 L 2.4372,22.4913 z "
          id="path12"
          style="fill:#da251d" />
    <g id="_76856840">
      <path id="_76847304"
            class="fil0"
            d="M 76.1743,152.226 C 102.5694,140.5125 98.6428,113.7445 75.6944,108.0527 C 70.1972,105.6192 61.9078,107.6815 60.2936,98.9788 C 61.8206,98.3189 69.0629,102.4846 80.3626,101.6185 C 76.0434,97.7002 72.4222,98.8138 68.6702,98.7726 C 63.9584,95.308 59.2029,91.8847 50.2155,98.7726 C 46.158,87.2652 46.2453,78.5213 60.7299,79.305 L 76.8723,80.0061 C 78.1375,76.2528 79.7518,74.8093 82.2386,73.3657 L 69.63,40.4522 C 73.8183,41.5246 78.4866,41.3596 82.2386,47.7526 C 91.575,44.2468 96.2795,54.4935 88.6446,60.3503 C 86.347,58.4521 80.9569,57.7451 83.4464,62.471 C 85.2618,65.9172 88.4994,68.7555 94.3672,62.1058 C 96.156,66.2303 102.3512,66.5603 105.1434,61.8584 C 104.1836,58.6413 102.5694,57.7751 99.7772,60.9922 C 96.4935,58.8092 95.1866,56.0612 95.101,53.4811 C 94.9415,48.6678 97.9576,45.456 103.0493,45.5254 C 103.2674,41.2359 104.6199,37.7713 107.9356,35.8328 C 111.7658,38.4801 114.5463,42.0731 115.1779,46.4327 C 125.9977,45.7316 122.9419,54.1605 117.7065,60.5947 C 116.2123,58.4519 113.8024,56.7966 112.1823,58.8975 C 110.5681,60.9899 111.5784,62.3664 113.5221,63.9654 C 116.3667,66.3052 119.5026,64.6991 122.6384,62.7657 C 124.6834,63.74 126.6058,64.5232 128.2351,64.8603 C 133.7878,66.009 134.9376,58.7127 131.6438,57.9489 C 130.0462,57.5785 128.0259,59.0092 127.3818,60.8159 C 120.2766,51.7689 127.3557,46.4552 135.0288,47.2989 C 136.9048,43.3806 139.4789,40.1223 148.1172,41.9783 L 134.7234,74.3143 L 143.6672,73.3657 C 141.7912,79.0987 139.3916,81.4085 136.9048,83.0583 L 143.449,82.6458 C 143.7108,85.8629 142.5328,87.9664 139.697,88.8325 C 139.6097,93.0808 143.5799,95.638 144.1471,100.0924 C 145.8049,116.3842 135.945,133.3771 147.2011,145.5856 C 144.7579,146.9054 142.3583,147.9365 139.9588,146.9054 C 143.3618,163.1972 150.7349,176.2306 159.1116,188.4391 C 157.3664,191.3675 154.836,190.4601 152.5673,190.6251 C 161.0748,200.4001 170.9348,205.3907 160.5077,227.5393 L 151.8693,225.5183 C 143.9289,229.7253 135.9886,228.3229 128.0483,223.1261 C 122.4202,225.5595 116.9231,228.7766 110.7278,225.5183 C 102.3512,229.9727 96.505,228.3642 91.8368,223.9922 C 86.7759,228.158 81.366,227.9105 75.6944,224.4459 C 69.8045,227.4568 64.1329,227.7043 58.8539,223.1261 C 56.4543,224.9821 54.5783,224.3634 52.7895,223.3323 C 50.5209,224.2397 48.2958,225.972 46.0272,224.6521 C 43.0168,207.9067 46.4634,193.471 58.4176,182.0461 L 57.4578,175.6119 C 67.9722,176.2306 73.5566,166.373 79.1846,156.6392 C 77.7013,155.7731 75.8689,155.3194 76.1743,152.226 L 76.1743,152.226 z "
            style="fill:#0a0b0c" />
      <g id="g16">
        <polygon id="_76847232"
                 class="fil2"
                 points="51.6116,95.2488 51.6116,94.7906 51.6116,95.2488 51.5725,95.248 51.5372,95.2489 51.5055,95.2489 51.4773,95.2489 51.4525,95.2489 51.4299,95.248 51.4114,95.2479 51.3968,95.2488 51.3842,95.2488 51.3743,95.2488 51.367,95.2488 51.3623,95.2488 51.36,95.2488 51.3599,94.7906 51.362,94.7906 51.3662,94.7906 51.3722,94.7906 51.3801,94.7906 51.3896,94.7906 51.4007,94.7906 51.4132,94.7906 51.4271,94.7906 51.4421,94.7906 51.4582,94.7906 51.4744,94.7915 51.4923,94.7914 51.5119,94.7905 51.5311,94.7905 51.5508,94.7905 51.5709,94.7905 51.5922,94.7914 51.6116,94.7906 51.6116,95.2488 51.5904,95.2478 51.5709,95.2487 51.5508,95.2487 51.5311,95.2487 51.5119,95.2487 51.4941,95.2478 51.4762,95.2479 51.4582,95.2488 51.4421,95.2488 51.4271,95.2488 51.4132,95.2488 51.4007,95.2488 51.3896,95.2488 51.3801,95.2488 51.3722,95.2488 51.3662,95.2488 51.362,95.2488 51.3599,95.2488 51.36,94.7906 51.3623,94.7906 51.367,94.7906 51.3743,94.7906 51.3842,94.7906 51.3968,94.7906 51.4132,94.7915 51.4317,94.7916 51.4525,94.7907 51.4773,94.7907 51.5055,94.7907 51.5372,94.7907 51.5725,94.7916 51.6116,94.7906 51.6116,95.2488 "
                 style="fill:#000000;fill-rule:nonzero" />
      </g>
      <path class="fil3"
            d="M 51.1753,96.0921 C 48.6448,88.503 47.7723,80.9552 59.1156,81.3264 L 76.8723,82.3987 C 78.0573,92.7804 91.1171,99.9499 93.1879,108.7447 C 94.5047,114.3377 89.3017,113.2944 86.4812,110.9868 C 78.4601,104.4214 62.6162,105.519 62.824,100.959 C 69.0192,103.6811 78.4429,101.7426 88.3029,106.2796 C 83.5038,101.0827 82.4567,96.587 69.3683,96.9994 C 62.126,92.1325 55.9744,92.7512 51.1753,96.0921 L 51.1753,96.0921 z "
            id="path19"
            style="fill:#f8c300" />
      <path class="fil4"
            d="M 85.947,82.1925 C 86.5796,81.9761 87.2394,81.7981 87.9151,81.6674 C 87.7141,82.3958 88.3136,83.7791 89.1351,84.0302 C 88.874,82.8804 89.0453,82.0631 89.2621,81.473 C 90.8818,81.3195 92.5462,81.4547 94.1055,81.9863 C 92.4476,85.987 86.7323,87.0182 85.947,82.1925 L 85.947,82.1925 z "
            id="path21"
            style="fill:#ffffff" />
      <path class="fil5"
            d="M 142.227,104.836 C 142.9251,99.3504 139.6093,94.8135 136.7735,90.4415 C 130.4038,91.0602 123.4669,94.6485 117.3153,91.4314 C 123.9904,89.8641 131.4072,91.0189 137.5588,87.8018 C 140.2201,86.1108 140.0892,84.5847 136.8608,85.4096 C 134.2867,85.8221 125.4302,82.3575 131.7999,82.5637 C 135.3338,82.3987 140.9182,77.1606 139.7402,75.6758 C 132.5416,77.3669 125.212,76.2532 118.057,75.1396 C 106.5828,73.9435 95.0213,74.4385 83.547,75.0159 C 80.8857,75.882 75.7812,82.2338 81.322,80.9552 C 86.3829,77.903 92.3163,79.7178 97.639,80.8727 C 105.3175,82.3162 113.1706,82.6462 120.9364,82.605 C 113.6505,86.1933 105.2303,84.3372 97.5517,83.1411 C 95.4139,89.2042 85.2485,89.5341 83.8088,82.8937 C 80.2749,83.4711 79.3587,86.0695 81.6274,88.9154 C 85.7721,96.2983 94.7595,101.3714 95.7193,110.1978 C 95.3949,112.0871 94.4794,113.6171 92.4036,114.4873 C 98.4243,120.9215 99.8204,130.7791 95.283,138.3269 C 91.9673,144.3899 86.5574,149.1743 80.7548,153.0513 C 85.8157,156.5159 92.2291,153.6287 94.4541,148.5556 C 95.3267,148.0607 93.2325,155.1548 90.0913,155.6085 C 85.2485,156.5159 81.4093,157.4233 79.6641,162.4139 C 75.5194,168.1882 72.0292,176.066 64.1325,177.8808 C 57.6319,178.4994 68.7134,185.5111 72.3346,182.129 C 78.9224,179.6131 81.8892,173.3026 86.0775,168.3944 C 87.779,166.2085 89.5241,164.0225 91.2256,161.7952 C 85.903,168.3119 85.3794,177.6745 90.0913,184.6037 C 91.7492,187.5733 94.7595,192.1515 95.763,186.3772 C 98.1625,178.5407 96.2865,169.7555 100.6929,162.4139 C 101.2165,160.4754 106.7136,153.5463 105.6666,158.8256 C 101.391,164.3112 100.213,171.1578 99.7331,177.7983 C 99.2968,181.8403 98.5988,186.006 96.2429,189.4706 C 105.0558,185.9235 108.1097,176.3547 110.1166,168.2707 C 110.6838,165.5898 110.2912,173.1376 111.3382,174.6637 C 112.9089,180.3555 117.0099,185.1399 121.809,188.7282 C 118.2751,180.438 124.2522,172.2302 125.9537,164.1875 C 126.739,161.8777 126.3027,155.7322 127.4371,161.2591 C 129.0949,170.4979 120.5002,179.0769 124.2086,188.2333 C 132.2798,183.1601 135.0284,173.4676 134.3739,164.7236 C 134.2867,160.9703 133.9377,157.1758 133.7195,153.4225 C 136.6426,163.6925 139.0422,174.5812 145.5864,183.4901 C 147.2443,187.7383 159.4602,188.9757 153.4831,183.3664 C 145.8918,172.0652 140.5692,159.5268 137.297,146.5346 C 134.8975,140.5953 132.8906,133.9962 135.072,127.7269 C 136.0755,133.3775 135.9009,139.6055 139.3039,144.5136 C 141.7471,146.9471 145.4555,144.6786 141.878,142.3276 C 136.8608,133.0888 139.1731,122.3651 141.3981,112.755 C 141.878,110.1153 142.3579,107.4757 142.227,104.836 L 142.227,104.836 z M 103.1361,126.737 C 103.5288,120.6328 100.4748,114.6523 95.7193,110.569 C 98.3806,114.2811 99.9076,110.8165 98.4679,107.6406 C 97.1591,105.1659 93.5379,100.1753 98.337,104.0936 C 102.5253,108.0118 99.3841,114.2398 103.8778,117.8694 C 105.4921,120.7153 104.6195,124.0149 103.1361,126.737 L 103.1361,126.737 z "
            id="path23"
            style="fill:#ffffff" />
      <path class="fil6"
            d="M 61.7333,221.93 C 65.2236,225.3121 71.0261,224.1572 74.4728,222.5074 C 73.862,220.1152 73.4257,217.5993 69.8918,217.8055 C 69.7173,219.6615 69.8045,222.4249 69.1065,222.6724 C 67.3177,222.8374 68.3648,219.7027 68.1467,217.9705 C 66.1834,217.723 62.475,219.579 61.7333,221.93 L 61.7333,221.93 z "
            id="path25"
            style="fill:#f4f4ec" />
      <path class="fil7"
            d="M 94.0619,220.858 C 98.0756,226.0549 105.3179,225.5187 108.1101,222.2603 C 106.3214,220.5693 104.5326,217.8059 102.4821,217.1047 C 102.1767,218.9607 102.3512,221.6004 101.6095,222.1366 C 99.6899,222.0953 100.9115,218.507 100.6497,216.4448 C 97.9448,216.4035 96.156,219.2907 94.0619,220.858 L 94.0619,220.858 z "
            id="path27"
            style="fill:#faf6f7" />
      <path class="fil8"
            d="M 130.186,218.961 C 135.7705,224.4054 142.0529,226.4676 148.4663,222.7968 C 146.6775,220.2396 141.922,218.7961 138.6499,216.8163 C 137.9519,218.3424 138.3445,220.3221 137.7337,220.9408 C 137.1666,220.982 136.7739,218.5898 136.3376,216.5688 L 134.418,214.3828 C 132.9782,214.5478 131.364,216.94 130.186,218.961 L 130.186,218.961 z "
            id="path29"
            style="fill:#fdfcfa" />
      <path class="fil5"
            d="M 93.0148,190.708 C 88.5647,186.3772 85.7289,181.3453 83.8965,175.7773 C 77.7449,184.48 69.8045,185.9235 61.0789,184.3975 C 53.9239,190.9967 47.1179,203.0814 48.3394,221.7241 C 49.561,221.8066 50.6954,221.6829 51.5679,220.5693 C 58.6357,200.1118 63.9147,197.7196 72.7713,190.5842 C 63.0858,197.8021 57.7195,208.402 53.5312,219.9506 C 54.9709,221.9304 57.1524,221.2705 59.5955,219.8681 C 69.0192,217.2697 69.0192,208.0308 75.2581,204.5663 C 72.2914,212.5678 69.7609,217.9709 82.2822,223.8276 C 77.4831,212.1966 77.7013,207.0822 81.2788,200.2768 C 79.7518,210.7942 82.1077,218.837 87.2122,224.4051 C 90.8334,219.002 96.2433,219.7444 99.6463,211.3304 C 101.3041,199.8643 104.7071,198.0083 106.6704,190.9554 C 100.6933,205.7211 100.5625,221.188 116.4431,224.4051 C 113.2146,214.4238 111.295,208.6083 118.6682,200.7305 C 113.8691,208.6907 115.3524,215.2487 118.7991,224.1576 C 123.38,222.1778 128.0046,216.816 132.5856,213.104 C 133.1964,208.4433 129.6189,203.6589 131.2331,199.9056 C 135.2469,202.5865 131.5385,216.5273 156.2757,221.4767 C 152.611,212.939 134.8106,204.9787 134.069,190.8317 C 140.7877,210.8767 153.4835,210.1756 158.7189,221.023 C 164.0852,219.7444 163.4744,207.8246 159.8532,203.1639 C 155.185,191.6153 143.2309,187.4908 136.7739,171.9415 C 135.0288,181.3866 130.7968,186.6659 125.4306,189.8831 C 116.8358,191.0792 113.3892,184.7687 109.5062,179.0356 C 104.9253,184.6037 101.6095,192.4402 93.0148,190.708 L 93.0148,190.708 z "
            id="path31"
            style="fill:#ffffff" />
      <g id="g33">
        <path class="fil3"
              d="M 71.7242,42.1437 L 84.3764,73.5723 L 134.0253,73.2011 L 146.3721,43.216 C 143.0127,42.1849 137.9082,41.8137 135.6832,49.1966 C 125.5614,45.0721 122.682,56.002 127.2193,59.7965 C 129.5316,54.3522 134.8106,57.2806 134.6797,60.4977 C 134.5052,64.2922 130.7532,68.9529 122.9874,63.6735 C 120.7951,66.7978 115.8901,67.2601 112.9125,64.747 C 111.5975,63.6372 109.7,61.2633 110.66,59.4704 C 111.9709,57.023 115.4615,54.9194 117.4902,59.8378 C 124.558,53.1973 121.6349,43.876 112.2112,48.4542 C 115.2215,45.237 110.9896,39.4628 108.1538,37.4005 C 105.8415,39.5865 102.5257,42.9273 104.7944,47.423 C 93.8873,43.3398 94.6726,59.0129 100.3879,59.9615 C 102.6566,54.8059 107.0194,57.528 105.4052,62.23 C 104.6199,66.4782 96.9616,67.1834 94.4311,63.3064 C 91.8033,66.9858 88.3706,67.6032 85.7402,66.1226 C 83.4681,64.8437 80.6723,61.016 82.4141,58.489 C 83.6271,56.7293 85.778,56.1246 87.9103,59.1778 C 96.6795,51.6713 86.8196,43.5048 80.8861,50.1452 C 81.4969,46.0207 77.2213,42.4324 71.7242,42.1437 L 71.7242,42.1437 z "
              id="path35"
              style="fill:#f8c300" />
        <path id="1"
              class="fil2"
              d="M 84.3806,74.0841 L 83.8689,73.755 L 71.2167,42.3264 L 72.2317,41.961 L 84.8839,73.3896 L 84.3806,74.0841 L 84.3806,74.0841 z M 84.3806,74.0841 L 84.0026,74.0869 L 83.8689,73.755 L 84.3806,74.0841 L 84.3806,74.0841 z M 134.5306,73.3858 L 134.0295,73.7129 L 84.3806,74.0841 L 84.3722,73.0605 L 134.0211,72.6893 L 134.5306,73.3858 z M 134.5306,73.3858 L 134.3971,73.7101 L 134.0295,73.7129 L 134.5306,73.3858 L 134.5306,73.3858 z M 146.5398,42.7282 L 146.8774,43.4007 L 134.5306,73.3858 L 133.52,73.0164 L 145.8668,43.0313 L 146.5398,42.7282 z M 146.5398,42.7282 L 147.0853,42.8956 L 146.8774,43.4007 L 146.5398,42.7282 z M 135.4688,49.6683 L 135.8976,48.7249 L 135.1609,49.0561 L 135.3842,48.3684 L 135.6255,47.7207 L 135.8821,47.1161 L 136.1552,46.5528 L 136.4459,46.0278 L 136.7494,45.5418 L 137.0667,45.0934 L 137.3971,44.6813 L 137.7418,44.3022 L 138.0958,43.961 L 138.4624,43.6502 L 138.8387,43.3725 L 139.2217,43.1286 L 139.6128,42.9134 L 140.011,42.7274 L 140.4112,42.5713 L 140.8168,42.4419 L 141.2228,42.3379 L 141.6284,42.2559 L 142.0346,42.1987 L 142.4408,42.163 L 142.8419,42.1474 L 143.2391,42.1486 L 143.6337,42.1655 L 144.0227,42.1985 L 144.4075,42.2446 L 144.7827,42.3043 L 145.1521,42.3723 L 145.5125,42.4514 L 145.8652,42.5383 L 146.2072,42.6297 L 146.5398,42.7282 L 146.2044,43.7038 L 145.8972,43.6133 L 145.5806,43.5259 L 145.2577,43.447 L 144.9271,43.3759 L 144.5917,43.3119 L 144.2503,43.2602 L 143.9081,43.2181 L 143.5615,43.1891 L 143.2137,43.1722 L 142.8631,43.171 L 142.513,43.1866 L 142.1662,43.2183 L 141.8194,43.2675 L 141.4734,43.3335 L 141.131,43.4215 L 140.7934,43.5307 L 140.4568,43.6628 L 140.1266,43.8166 L 139.7993,43.9958 L 139.4757,44.2035 L 139.1588,44.437 L 138.8474,44.6996 L 138.5402,44.9968 L 138.2421,45.3237 L 137.9499,45.6876 L 137.6666,46.0878 L 137.3929,46.5256 L 137.1318,47.0024 L 136.8801,47.5215 L 136.6405,48.0821 L 136.416,48.6856 L 136.2055,49.3371 L 135.4688,49.6683 L 135.4688,49.6683 z M 136.2055,49.3371 L 136.0361,49.8994 L 135.4688,49.6683 L 136.2055,49.3371 L 136.2055,49.3371 z M 126.7161,59.6058 L 127.7225,59.9872 L 126.8605,60.1799 L 126.4165,59.7657 L 126.0201,59.3119 L 125.6736,58.8244 L 125.3768,58.3052 L 125.1297,57.7626 L 124.9279,57.2003 L 124.7738,56.6187 L 124.667,56.0257 L 124.6057,55.4254 L 124.5917,54.8199 L 124.6209,54.2131 L 124.6995,53.6093 L 124.8212,53.0105 L 124.9902,52.4245 L 125.2065,51.8518 L 125.4679,51.2981 L 125.7785,50.7676 L 126.1364,50.2644 L 126.5414,49.7946 L 126.9956,49.36 L 127.4968,48.9671 L 128.0451,48.6216 L 128.6426,48.3277 L 129.2848,48.0914 L 129.9698,47.917 L 130.6995,47.8083 L 131.4676,47.7694 L 132.2762,47.8024 L 133.123,47.9114 L 134.0104,48.0985 L 134.9339,48.3697 L 135.8976,48.7249 L 135.4688,49.6683 L 134.5771,49.3371 L 133.7302,49.0901 L 132.932,48.919 L 132.1786,48.822 L 131.4718,48.793 L 130.8099,48.8279 L 130.1948,48.9206 L 129.6202,49.067 L 129.0884,49.2631 L 128.5971,49.5048 L 128.1422,49.7901 L 127.726,50.1148 L 127.3482,50.477 L 127.007,50.8746 L 126.7043,51.3016 L 126.4403,51.7557 L 126.2129,52.2332 L 126.0264,52.7297 L 125.8786,53.2433 L 125.7697,53.7659 L 125.7037,54.2975 L 125.6745,54.8319 L 125.6885,55.3652 L 125.7414,55.8933 L 125.8354,56.4099 L 125.9683,56.9113 L 126.1403,57.3972 L 126.3534,57.8596 L 126.6036,58.2944 L 126.8907,58.7017 L 127.2149,59.0753 L 127.5781,59.4131 L 126.7161,59.6058 L 126.7161,59.6058 z M 127.7225,59.9872 L 127.4362,60.6613 L 126.8605,60.1799 L 127.7225,59.9872 z M 135.2211,60.5198 L 134.1383,60.4756 L 134.1383,60.4796 L 134.135,60.2253 L 134.1057,59.9762 L 134.0542,59.7296 L 133.9778,59.4852 L 133.88,59.2464 L 133.7603,59.0127 L 133.6202,58.7895 L 133.4613,58.5744 L 133.285,58.3708 L 133.0952,58.1803 L 132.889,58.0042 L 132.67,57.8441 L 132.442,57.7014 L 132.2045,57.5777 L 131.9608,57.4723 L 131.7107,57.3909 L 131.4555,57.3287 L 131.199,57.2915 L 130.9426,57.2765 L 130.6815,57.2874 L 130.4236,57.3236 L 130.1641,57.3885 L 129.9046,57.4796 L 129.6464,57.6024 L 129.3913,57.7585 L 129.1343,57.9493 L 128.8813,58.1802 L 128.6337,58.4508 L 128.3911,58.7644 L 128.157,59.1227 L 127.935,59.5312 L 127.7225,59.9872 L 126.7161,59.6058 L 126.954,59.0896 L 127.2142,58.6209 L 127.4909,58.1944 L 127.7845,57.8124 L 128.0957,57.4736 L 128.4209,57.1785 L 128.7585,56.9235 L 129.1114,56.7112 L 129.4714,56.5402 L 129.8371,56.4089 L 130.207,56.32 L 130.5795,56.2678 L 130.9468,56.2529 L 131.3136,56.2719 L 131.6721,56.3251 L 132.0207,56.4073 L 132.36,56.5209 L 132.6885,56.6583 L 133.0026,56.8222 L 133.3028,57.0091 L 133.5854,57.2174 L 133.851,57.4457 L 134.1004,57.6924 L 134.3275,57.9562 L 134.5332,58.2355 L 134.7157,58.5309 L 134.8736,58.837 L 135.0054,59.156 L 135.1074,59.4848 L 135.1801,59.8236 L 135.2178,60.1691 L 135.2211,60.5158 L 135.2211,60.5198 L 135.2211,60.5198 z M 135.2211,60.5158 L 135.2211,60.5198 L 135.2197,60.5505 L 135.2211,60.5158 z M 123.4397,63.9565 L 122.5351,63.3905 L 123.3038,63.258 L 124.001,63.7122 L 124.6726,64.1079 L 125.3188,64.4515 L 125.9395,64.7427 L 126.5349,64.9837 L 127.1029,65.1782 L 127.6459,65.3265 L 128.1615,65.4343 L 128.6522,65.4998 L 129.1179,65.5288 L 129.561,65.5213 L 129.9772,65.4814 L 130.3708,65.411 L 130.744,65.312 L 131.0949,65.1867 L 131.4255,65.0367 L 131.7361,64.8621 L 132.0287,64.6649 L 132.3013,64.4472 L 132.5562,64.2108 L 132.7934,63.9557 L 133.0131,63.6839 L 133.2109,63.3975 L 133.3913,63.0982 L 133.5545,62.7863 L 133.6961,62.4675 L 133.8183,62.142 L 133.9213,61.8096 L 134.0051,61.4744 L 134.0678,61.1404 L 134.1135,60.8054 L 134.1383,60.4756 L 135.2211,60.5198 L 135.1921,60.9058 L 135.1422,61.293 L 135.0667,61.6832 L 134.9701,62.0706 L 134.8501,62.4552 L 134.7067,62.8369 L 134.5397,63.2119 L 134.3511,63.576 L 134.1367,63.9315 L 133.8963,64.2741 L 133.6342,64.6021 L 133.346,64.9134 L 133.0317,65.206 L 132.6911,65.4759 L 132.3263,65.7213 L 131.9351,65.9399 L 131.5195,66.1301 L 131.0794,66.2876 L 130.617,66.4106 L 130.13,66.497 L 129.6204,66.5449 L 129.0925,66.5524 L 128.5418,66.5194 L 127.9705,66.4419 L 127.3783,66.3221 L 126.7675,66.1538 L 126.1357,65.9391 L 125.4851,65.6741 L 124.8134,65.3587 L 124.1206,64.9911 L 123.4064,64.5672 L 122.671,64.089 L 123.4397,63.9565 L 123.4397,63.9565 z M 122.5351,63.3905 L 122.8463,62.947 L 123.3038,63.258 L 122.5351,63.3905 z M 112.5515,65.1284 L 113.2735,64.3656 L 113.2735,64.3656 L 113.5348,64.5724 L 113.8065,64.7659 L 114.0857,64.942 L 114.3737,65.103 L 114.6674,65.2466 L 114.9703,65.3772 L 115.2773,65.4907 L 115.5917,65.587 L 115.9085,65.6705 L 116.229,65.7371 L 116.5543,65.7888 L 116.8795,65.8257 L 117.2058,65.8459 L 117.5346,65.8514 L 117.8626,65.8402 L 118.1871,65.8145 L 118.5093,65.7742 L 118.8305,65.7175 L 119.1455,65.6464 L 119.4557,65.561 L 119.7623,65.4593 L 120.0603,65.3434 L 120.3529,65.2133 L 120.6373,65.0691 L 120.9128,64.9088 L 121.1781,64.7346 L 121.4327,64.5464 L 121.6778,64.3443 L 121.9124,64.1265 L 122.1338,63.8968 L 122.341,63.6495 L 122.5351,63.3905 L 123.4397,63.9565 L 123.2072,64.2677 L 122.9576,64.5592 L 122.6938,64.8371 L 122.4166,65.0951 L 122.1249,65.3372 L 121.8193,65.5616 L 121.503,65.768 L 121.1767,65.9563 L 120.8413,66.1287 L 120.4977,66.2828 L 120.1445,66.4187 L 119.7869,66.5366 L 119.4215,66.638 L 119.0513,66.7211 L 118.6791,66.7858 L 118.3017,66.8341 L 117.922,66.8638 L 117.543,66.875 L 117.1634,66.8695 L 116.7819,66.8453 L 116.4015,66.8044 L 116.0252,66.7447 L 115.6495,66.6661 L 115.2775,66.5706 L 114.9121,66.4541 L 114.5499,66.3206 L 114.196,66.17 L 113.8471,65.9982 L 113.5081,65.8092 L 113.1781,65.6009 L 112.8596,65.3754 L 112.5515,65.1284 L 112.5515,65.1284 L 112.5515,65.1284 z M 110.1759,59.2396 L 111.1441,59.7012 L 111.1441,59.7012 L 111.0815,59.8328 L 111.0307,59.9655 L 110.9912,60.1009 L 110.9644,60.2407 L 110.9476,60.3844 L 110.9401,60.53 L 110.9456,60.681 L 110.9613,60.835 L 110.9845,60.9897 L 111.0209,61.1488 L 111.0655,61.3098 L 111.1179,61.4726 L 111.1817,61.6368 L 111.2518,61.802 L 111.3298,61.9658 L 111.4151,62.1321 L 111.5092,62.2962 L 111.6072,62.4581 L 111.7107,62.6193 L 111.8211,62.7795 L 111.9334,62.9343 L 112.0493,63.0874 L 112.1702,63.2386 L 112.2933,63.3853 L 112.4159,63.5253 L 112.5418,63.6624 L 112.6658,63.796 L 112.7916,63.9219 L 112.9144,64.0418 L 113.0379,64.1572 L 113.157,64.2639 L 113.2735,64.3656 L 112.5515,65.1284 L 112.4182,65.0147 L 112.2821,64.8918 L 112.1458,64.7644 L 112.006,64.6285 L 111.8674,64.4864 L 111.7264,64.3408 L 111.5879,64.1877 L 111.4483,64.0277 L 111.3124,63.8648 L 111.1787,63.6976 L 111.0458,63.5245 L 110.9165,63.3455 L 110.7935,63.1653 L 110.673,62.9799 L 110.558,62.79 L 110.4511,62.5977 L 110.3488,62.4034 L 110.2538,62.2034 L 110.1667,62.0022 L 110.0903,61.7978 L 110.0209,61.5908 L 109.9635,61.3816 L 109.9187,61.1703 L 109.8827,60.9554 L 109.8628,60.7412 L 109.8573,60.526 L 109.8648,60.3082 L 109.89,60.0921 L 109.9338,59.8761 L 109.9945,59.6603 L 110.0751,59.4474 L 110.1759,59.2396 L 110.1759,59.2396 L 110.1759,59.2396 z M 110.1759,59.2396 L 110.1759,59.2396 L 110.1759,59.2396 L 110.1759,59.2396 z M 117.108,59.4745 L 117.8724,60.2011 L 116.9849,60.0245 L 116.8011,59.6059 L 116.6095,59.2291 L 116.417,58.893 L 116.2179,58.5965 L 116.0193,58.3362 L 115.8197,58.1151 L 115.6198,57.9256 L 115.4224,57.7688 L 115.2281,57.6413 L 115.0354,57.5419 L 114.8452,57.4654 L 114.6579,57.4126 L 114.4702,57.3803 L 114.2824,57.3671 L 114.0913,57.374 L 113.8993,57.3977 L 113.7075,57.439 L 113.5119,57.4965 L 113.3156,57.5733 L 113.1213,57.6639 L 112.9254,57.7733 L 112.7328,57.896 L 112.5441,58.033 L 112.3581,58.1831 L 112.1794,58.3469 L 112.0046,58.5192 L 111.8385,58.701 L 111.6797,58.8909 L 111.5312,59.0856 L 111.3911,59.2882 L 111.2606,59.4931 L 111.1441,59.7012 L 110.1759,59.2396 L 110.3178,58.9913 L 110.4697,58.7462 L 110.6352,58.5076 L 110.8135,58.2727 L 111.0019,58.0466 L 111.202,57.8288 L 111.4108,57.6203 L 111.6319,57.4243 L 111.8605,57.2382 L 112.1,57.065 L 112.3478,56.9061 L 112.6033,56.7647 L 112.8698,56.6379 L 113.1425,56.5331 L 113.4229,56.4474 L 113.7125,56.3861 L 114.0063,56.3504 L 114.3036,56.3435 L 114.606,56.3647 L 114.9085,56.417 L 115.2104,56.502 L 115.5068,56.6185 L 115.7971,56.7701 L 116.0806,56.9538 L 116.3544,57.1708 L 116.6181,57.4205 L 116.8729,57.706 L 117.1181,58.0225 L 117.3512,58.3752 L 117.5777,58.7635 L 117.7905,59.1883 L 117.9955,59.6511 L 117.108,59.4745 L 117.108,59.4745 z M 117.8724,60.2011 L 117.2853,60.7527 L 116.9849,60.0245 L 117.8724,60.2011 z M 111.8057,48.115 L 112.6167,48.7934 L 111.9628,47.9986 L 112.8589,47.5955 L 113.7185,47.2709 L 114.545,47.0256 L 115.3338,46.8527 L 116.0903,46.7531 L 116.8055,46.7238 L 117.4874,46.7617 L 118.1287,46.8678 L 118.729,47.0392 L 119.2854,47.2747 L 119.7953,47.5672 L 120.2516,47.9158 L 120.6578,48.3135 L 121.0071,48.7572 L 121.3028,49.2399 L 121.5425,49.7604 L 121.7274,50.3097 L 121.8571,50.8889 L 121.9328,51.4929 L 121.952,52.1146 L 121.9182,52.7571 L 121.8309,53.4152 L 121.6891,54.086 L 121.4904,54.7664 L 121.236,55.4534 L 120.9277,56.1439 L 120.5625,56.8349 L 120.1398,57.5233 L 119.6613,58.2082 L 119.1238,58.8845 L 118.527,59.5511 L 117.8724,60.2011 L 117.108,59.4745 L 117.7202,58.8647 L 118.2746,58.2461 L 118.7737,57.618 L 119.2184,56.9853 L 119.6071,56.3491 L 119.9425,55.7143 L 120.2254,55.084 L 120.4542,54.4612 L 120.6317,53.8492 L 120.7607,53.2506 L 120.8396,52.6687 L 120.8692,52.1066 L 120.85,51.5651 L 120.7869,51.0535 L 120.6786,50.5707 L 120.5275,50.1176 L 120.3346,49.7015 L 120.1025,49.3192 L 119.8298,48.9759 L 119.5212,48.6706 L 119.1711,48.4062 L 118.7844,48.1819 L 118.3554,48.0026 L 117.8825,47.8674 L 117.3642,47.7813 L 116.8013,47.7474 L 116.1879,47.7727 L 115.5334,47.8603 L 114.8296,48.0132 L 114.0837,48.2383 L 113.2921,48.5349 L 112.4596,48.9098 L 111.8057,48.115 L 111.8057,48.115 z M 112.4596,48.9098 L 109.8973,50.1546 L 111.8057,48.115 L 112.4596,48.9098 z M 108.5381,37.7638 L 107.7695,37.0372 L 108.485,36.995 L 108.7696,37.2111 L 109.0608,37.4457 L 109.3527,37.7019 L 109.6501,37.9743 L 109.9473,38.2639 L 110.2426,38.5695 L 110.5388,38.8899 L 110.8299,39.2241 L 111.1166,39.5729 L 111.3973,39.931 L 111.6702,40.3015 L 111.9361,40.681 L 112.1891,41.0705 L 112.4297,41.4669 L 112.6563,41.8689 L 112.8674,42.2795 L 113.0613,42.6935 L 113.2345,43.1097 L 113.3893,43.5309 L 113.5224,43.9542 L 113.6299,44.3803 L 113.7124,44.804 L 113.7661,45.2302 L 113.7874,45.6518 L 113.7789,46.0716 L 113.7348,46.4885 L 113.6535,46.8992 L 113.5313,47.3027 L 113.3687,47.6979 L 113.1621,48.0774 L 112.912,48.4444 L 112.6167,48.7934 L 111.8057,48.115 L 112.033,47.8462 L 112.2237,47.5676 L 112.3793,47.2763 L 112.5037,46.9775 L 112.5961,46.6664 L 112.6604,46.3439 L 112.6961,46.0114 L 112.7046,45.6678 L 112.6833,45.3146 L 112.638,44.9566 L 112.5683,44.5891 L 112.4736,44.2192 L 112.3575,43.8441 L 112.2195,43.4669 L 112.0591,43.0869 L 111.8822,42.7091 L 111.6881,42.3345 L 111.4785,41.9607 L 111.2549,41.5923 L 111.0189,41.231 L 110.7742,40.8755 L 110.5183,40.5292 L 110.2546,40.1911 L 109.9849,39.8665 L 109.7108,39.5523 L 109.4358,39.2519 L 109.1575,38.9665 L 108.8815,38.6969 L 108.6095,38.4445 L 108.3388,38.2125 L 108.0774,37.9979 L 107.8226,37.806 L 108.5381,37.7638 L 108.5381,37.7638 z M 107.7695,37.0372 L 108.1058,36.7193 L 108.485,36.995 L 107.7695,37.0372 L 107.7695,37.0372 z M 104.5948,47.9007 L 104.994,46.9453 L 104.3039,47.6438 L 104.0968,47.1996 L 103.9212,46.7602 L 103.7758,46.3275 L 103.6617,45.8996 L 103.5797,45.4785 L 103.5245,45.0642 L 103.4969,44.6546 L 103.4956,44.2558 L 103.5174,43.8616 L 103.5653,43.4743 L 103.6361,43.0958 L 103.7263,42.7261 L 103.8346,42.3631 L 103.9622,42.009 L 104.1056,41.6635 L 104.2657,41.3268 L 104.4393,40.9989 L 104.623,40.6798 L 104.8198,40.3675 L 105.0242,40.0639 L 105.2373,39.7691 L 105.4578,39.4811 L 105.6844,39.2019 L 105.9161,38.9313 L 106.1494,38.6676 L 106.3852,38.4127 L 106.6223,38.1646 L 106.8576,37.9231 L 107.0917,37.6905 L 107.3215,37.4666 L 107.55,37.2475 L 107.7695,37.0372 L 108.5381,37.7638 L 108.3186,37.9701 L 108.0987,38.1812 L 107.8731,38.4011 L 107.6474,38.6257 L 107.4207,38.855 L 107.1962,39.0911 L 106.9732,39.334 L 106.7527,39.5817 L 106.538,39.8361 L 106.3284,40.0953 L 106.1249,40.3593 L 105.9288,40.6299 L 105.7412,40.9055 L 105.5658,41.1856 L 105.3991,41.4727 L 105.2467,41.7644 L 105.1078,42.0609 L 104.9814,42.3622 L 104.8708,42.6683 L 104.7751,42.9791 L 104.6977,43.2966 L 104.6397,43.6189 L 104.6002,43.946 L 104.5784,44.2798 L 104.5797,44.6224 L 104.6031,44.9678 L 104.6499,45.3219 L 104.7233,45.6828 L 104.8204,46.0505 L 104.9446,46.427 L 105.099,46.8102 L 105.2849,47.2022 L 104.5948,47.9007 L 104.5948,47.9007 z M 105.2849,47.2022 L 105.8802,48.3819 L 104.5948,47.9007 L 105.2849,47.2022 L 105.2849,47.2022 z M 99.8868,59.7648 L 100.889,60.1582 L 100.2945,60.4673 L 99.6841,60.3142 L 99.1145,60.0691 L 98.589,59.7424 L 98.1089,59.3482 L 97.6732,58.8911 L 97.2832,58.3832 L 96.938,57.827 L 96.6347,57.2327 L 96.3743,56.6026 L 96.1582,55.9451 L 95.9855,55.2665 L 95.8574,54.571 L 95.7753,53.865 L 95.7424,53.1548 L 95.7556,52.4468 L 95.8184,51.7451 L 95.9343,51.0541 L 96.1042,50.3823 L 96.3296,49.7337 L 96.6138,49.117 L 96.9601,48.5381 L 97.3698,48.0055 L 97.8464,47.5236 L 98.3907,47.1066 L 99.0023,46.7609 L 99.6801,46.4948 L 100.4189,46.3187 L 101.2179,46.2387 L 102.0741,46.2553 L 102.9887,46.3767 L 103.9609,46.6052 L 104.994,46.9453 L 104.5948,47.9007 L 103.6509,47.5888 L 102.7807,47.3843 L 101.9849,47.2789 L 101.2603,47.2623 L 100.6057,47.3303 L 100.0155,47.4704 L 99.4863,47.6763 L 99.0107,47.9456 L 98.5852,48.2744 L 98.2064,48.6559 L 97.8731,49.0921 L 97.5862,49.5746 L 97.3446,50.0991 L 97.1488,50.6593 L 97.0001,51.2509 L 96.897,51.8655 L 96.8384,52.499 L 96.8252,53.1428 L 96.8581,53.7888 L 96.9318,54.4304 L 97.0471,55.0617 L 97.2028,55.6761 L 97.3977,56.2654 L 97.6283,56.8233 L 97.8934,57.3452 L 98.192,57.8212 L 98.5182,58.2487 L 98.8691,58.6176 L 99.243,58.9274 L 99.6369,59.1699 L 100.0493,59.3468 L 100.4813,59.4557 L 99.8868,59.7648 L 99.8868,59.7648 z M 100.889,60.1582 L 100.7218,60.5382 L 100.2945,60.4673 L 100.889,60.1582 z M 105.9403,62.3183 L 104.8701,62.1417 L 104.8893,62.0714 L 105.0149,61.6667 L 105.1069,61.2767 L 105.1689,60.9024 L 105.2047,60.543 L 105.2135,60.1994 L 105.1946,59.875 L 105.1559,59.5726 L 105.0947,59.2893 L 105.0146,59.0263 L 104.9169,58.7866 L 104.8033,58.5694 L 104.6773,58.3755 L 104.5424,58.2064 L 104.396,58.0627 L 104.2438,57.9419 L 104.0872,57.8467 L 103.9256,57.7725 L 103.7606,57.7222 L 103.5913,57.6929 L 103.4129,57.6856 L 103.2312,57.7036 L 103.0412,57.7459 L 102.8403,57.8174 L 102.6341,57.9193 L 102.4199,58.0568 L 102.199,58.2308 L 101.9752,58.4425 L 101.7521,58.697 L 101.5289,58.9953 L 101.3094,59.3366 L 101.0948,59.7239 L 100.889,60.1582 L 99.8868,59.7648 L 100.1182,59.2783 L 100.3624,58.8348 L 100.6201,58.4333 L 100.8901,58.0748 L 101.1726,57.7561 L 101.4644,57.476 L 101.7659,57.2378 L 102.0779,57.0401 L 102.3987,56.882 L 102.7228,56.7663 L 103.0528,56.692 L 103.3831,56.662 L 103.7059,56.6733 L 104.0238,56.7266 L 104.329,56.8211 L 104.618,56.9515 L 104.8892,57.1189 L 105.1392,57.3161 L 105.3662,57.544 L 105.5733,57.7975 L 105.7545,58.0756 L 105.9105,58.3772 L 106.0422,58.7011 L 106.1479,59.0445 L 106.2261,59.408 L 106.2774,59.7906 L 106.2963,60.1874 L 106.2875,60.5992 L 106.2475,61.0268 L 106.1727,61.4693 L 106.0637,61.9237 L 105.9211,62.3886 L 105.9403,62.3183 L 105.9403,62.3183 z M 104.8701,62.1417 L 104.8758,62.1106 L 104.8893,62.0714 L 104.8701,62.1417 z M 94.8812,63.5934 L 93.981,63.0194 L 94.8918,63.0374 L 95.1183,63.3494 L 95.3682,63.6387 L 95.6397,63.9055 L 95.9367,64.1481 L 96.2528,64.3686 L 96.5859,64.5672 L 96.9379,64.7421 L 97.3046,64.8955 L 97.6838,65.0256 L 98.0754,65.1346 L 98.4729,65.2186 L 98.8784,65.2819 L 99.2876,65.3206 L 99.6983,65.339 L 100.1125,65.3332 L 100.5195,65.3053 L 100.9215,65.2557 L 101.316,65.1845 L 101.699,65.0918 L 102.0724,64.978 L 102.4298,64.8431 L 102.7711,64.6894 L 103.092,64.5149 L 103.3944,64.3221 L 103.6721,64.113 L 103.927,63.8838 L 104.157,63.6387 L 104.3576,63.374 L 104.531,63.0936 L 104.6771,62.7961 L 104.7895,62.4794 L 104.8701,62.1417 L 105.9403,62.3183 L 105.8341,62.7564 L 105.6835,63.1735 L 105.495,63.5674 L 105.2664,63.936 L 105.002,64.2771 L 104.7084,64.5944 L 104.3855,64.8838 L 104.0356,65.1491 L 103.6652,65.3861 L 103.2721,65.5966 L 102.863,65.7825 L 102.4376,65.9414 L 102.0006,66.0754 L 101.5496,66.1841 L 101.0913,66.2673 L 100.6257,66.3249 L 100.1549,66.3568 L 99.6855,66.3626 L 99.2112,66.3442 L 98.7382,66.2975 L 98.2691,66.2262 L 97.8036,66.1262 L 97.3484,66.0012 L 96.9012,65.8469 L 96.4665,65.6655 L 96.0465,65.4544 L 95.6414,65.2156 L 95.2573,64.9469 L 94.8965,64.6481 L 94.5572,64.3211 L 94.2477,63.9636 L 93.9704,63.5754 L 94.8812,63.5934 L 94.8812,63.5934 z M 93.981,63.0194 L 94.4507,62.3617 L 94.8918,63.0374 L 93.981,63.0194 L 93.981,63.0194 z M 85.4642,66.5622 L 86.0162,65.683 L 86.0162,65.683 L 86.2439,65.8036 L 86.4738,65.9117 L 86.7058,66.0092 L 86.9416,66.0939 L 87.1808,66.1675 L 87.4212,66.23 L 87.6646,66.2792 L 87.9084,66.3168 L 88.1567,66.3407 L 88.4049,66.3548 L 88.6592,66.3548 L 88.9106,66.3405 L 89.1633,66.3159 L 89.4189,66.2767 L 89.6751,66.2246 L 89.9316,66.1577 L 90.1902,66.0777 L 90.4464,65.9844 L 90.7063,65.8756 L 90.9652,65.7532 L 91.223,65.6149 L 91.4814,65.4607 L 91.7401,65.2922 L 91.9968,65.1054 L 92.2533,64.9041 L 92.5071,64.6862 L 92.7579,64.4532 L 93.0098,64.2013 L 93.2559,63.9321 L 93.5025,63.6455 L 93.7429,63.3413 L 93.981,63.0194 L 94.8812,63.5934 L 94.6219,63.9435 L 94.3561,64.2757 L 94.0883,64.5905 L 93.8124,64.8877 L 93.5351,65.1678 L 93.2503,65.4328 L 92.9625,65.6789 L 92.672,65.9084 L 92.3771,66.1192 L 92.0802,66.3157 L 91.7792,66.4941 L 91.4748,66.6564 L 91.1691,66.803 L 90.8626,66.9318 L 90.5512,67.0451 L 90.2416,67.1413 L 89.9299,67.2202 L 89.6185,67.2843 L 89.3077,67.3315 L 88.9956,67.3641 L 88.6846,67.3784 L 88.3795,67.3784 L 88.0717,67.3643 L 87.7682,67.3324 L 87.465,67.2868 L 87.1664,67.2256 L 86.8708,67.1511 L 86.5806,67.0613 L 86.2938,66.9566 L 86.011,66.8391 L 85.7343,66.7068 L 85.4642,66.5622 L 85.4642,66.5622 z M 81.9597,58.21 L 82.8685,58.768 L 82.8685,58.768 L 82.7438,58.9705 L 82.6385,59.1758 L 82.5556,59.3874 L 82.4924,59.6065 L 82.4479,59.8284 L 82.4209,60.0583 L 82.413,60.2938 L 82.4209,60.5339 L 82.4458,60.778 L 82.489,61.0273 L 82.5474,61.2773 L 82.6222,61.5291 L 82.7103,61.7841 L 82.8129,62.0375 L 82.9271,62.2907 L 83.056,62.543 L 83.1967,62.7936 L 83.3462,63.0398 L 83.5055,63.2811 L 83.676,63.5185 L 83.8523,63.7495 L 84.0357,63.9752 L 84.2254,64.1931 L 84.4183,64.4025 L 84.6176,64.6024 L 84.8182,64.7925 L 85.0192,64.9717 L 85.2238,65.1397 L 85.4248,65.2954 L 85.6257,65.4384 L 85.8231,65.5679 L 86.0162,65.683 L 85.4642,66.5622 L 85.2285,66.4229 L 84.9929,66.2694 L 84.7582,66.1024 L 84.5232,65.9225 L 84.293,65.7305 L 84.0624,65.5271 L 83.8362,65.313 L 83.6157,65.0889 L 83.3974,64.8555 L 83.1865,64.6136 L 82.9817,64.3637 L 82.7842,64.1047 L 82.5967,63.8391 L 82.4162,63.5658 L 82.2455,63.2874 L 82.0878,63.0046 L 81.9419,62.7163 L 81.8065,62.4229 L 81.6869,62.1253 L 81.5818,61.8261 L 81.4942,61.5221 L 81.4232,61.2159 L 81.3714,60.9104 L 81.3381,60.6021 L 81.326,60.2938 L 81.3381,59.9861 L 81.3735,59.6798 L 81.435,59.3737 L 81.5238,59.0742 L 81.6405,58.7784 L 81.784,58.4887 L 81.9597,58.21 L 81.9597,58.21 L 81.9597,58.21 z M 87.5472,58.7984 L 88.2734,59.5572 L 87.458,59.4608 L 87.2688,59.1993 L 87.0816,58.9607 L 86.8969,58.7427 L 86.7125,58.5467 L 86.533,58.3703 L 86.3542,58.2131 L 86.1807,58.0745 L 86.0104,57.9541 L 85.8456,57.8516 L 85.6845,57.7643 L 85.527,57.6939 L 85.3757,57.6378 L 85.2285,57.5958 L 85.0856,57.5651 L 84.947,57.5475 L 84.8111,57.5404 L 84.6778,57.5454 L 84.5453,57.56 L 84.418,57.5838 L 84.2896,57.6164 L 84.1624,57.6611 L 84.0347,57.7137 L 83.9107,57.7776 L 83.7863,57.8504 L 83.6618,57.9337 L 83.5415,58.0269 L 83.4214,58.1296 L 83.3039,58.2394 L 83.1911,58.3598 L 83.0791,58.4883 L 82.9721,58.6246 L 82.8685,58.768 L 81.9597,58.21 L 82.0889,58.0304 L 82.2255,57.8581 L 82.3673,57.6934 L 82.5183,57.5368 L 82.674,57.387 L 82.8365,57.2481 L 83.0078,57.1187 L 83.1833,56.9994 L 83.3671,56.8904 L 83.5591,56.7943 L 83.7548,56.7097 L 83.9584,56.6408 L 84.1674,56.5842 L 84.3839,56.5444 L 84.6014,56.5218 L 84.8239,56.5168 L 85.049,56.5279 L 85.2766,56.5575 L 85.5045,56.6042 L 85.7325,56.6704 L 85.9602,56.7545 L 86.1855,56.8571 L 86.4104,56.9764 L 86.6346,57.1151 L 86.8559,57.2715 L 87.0762,57.4463 L 87.2932,57.6397 L 87.5109,57.8521 L 87.7249,58.0843 L 87.9394,58.3345 L 88.152,58.6051 L 88.3626,58.8948 L 87.5472,58.7984 L 87.5472,58.7984 z M 88.2734,59.5572 L 87.8053,59.9579 L 87.458,59.4608 L 88.2734,59.5572 L 88.2734,59.5572 z M 80.3489,50.0749 L 81.4233,50.2155 L 80.4721,49.814 L 81.0731,49.2003 L 81.6973,48.6725 L 82.3425,48.2257 L 83.0028,47.8633 L 83.6758,47.5783 L 84.3532,47.3739 L 85.0289,47.2433 L 85.703,47.1877 L 86.3627,47.2002 L 87.0105,47.282 L 87.6378,47.4262 L 88.2385,47.6341 L 88.8126,47.8988 L 89.3517,48.2174 L 89.8518,48.5891 L 90.3087,49.0071 L 90.7205,49.4727 L 91.0786,49.9808 L 91.3812,50.5287 L 91.6218,51.1116 L 91.7966,51.7266 L 91.9013,52.3709 L 91.9317,53.0357 L 91.886,53.726 L 91.7556,54.4332 L 91.5407,55.1523 L 91.2372,55.8806 L 90.841,56.615 L 90.3499,57.353 L 89.76,58.0916 L 89.0692,58.8279 L 88.2734,59.5572 L 87.5472,58.7984 L 88.2878,58.1173 L 88.9234,57.4412 L 89.4581,56.7708 L 89.8982,56.1092 L 90.2478,55.459 L 90.5131,54.8231 L 90.6982,54.2044 L 90.8074,53.6056 L 90.8489,53.0277 L 90.8227,52.4673 L 90.735,51.9354 L 90.59,51.4288 L 90.3918,50.9503 L 90.1444,50.5026 L 89.8499,50.0869 L 89.5147,49.7057 L 89.1384,49.3599 L 88.7275,49.0564 L 88.286,48.794 L 87.8181,48.5775 L 87.3236,48.4098 L 86.8109,48.2896 L 86.2821,48.2238 L 85.737,48.2113 L 85.1861,48.2589 L 84.625,48.3655 L 84.0622,48.5377 L 83.4996,48.7745 L 82.9371,49.0849 L 82.3809,49.4673 L 81.8333,49.9309 L 81.3001,50.4764 L 80.3489,50.0749 L 80.3489,50.0749 z M 81.3001,50.4764 L 80.0887,51.8321 L 80.3489,50.0749 L 81.3001,50.4764 z M 72.2317,41.961 L 71.2167,42.3264 L 71.7539,41.6319 L 72.2869,41.6705 L 72.8119,41.728 L 73.3284,41.8038 L 73.838,41.8994 L 74.3355,42.0144 L 74.8225,42.1461 L 75.2985,42.2942 L 75.7624,42.46 L 76.2139,42.6411 L 76.6522,42.839 L 77.0745,43.0513 L 77.4844,43.2792 L 77.879,43.5205 L 78.2557,43.7764 L 78.6179,44.0447 L 78.9608,44.3266 L 79.2858,44.6219 L 79.5922,44.9299 L 79.8794,45.248 L 80.1446,45.578 L 80.3892,45.9191 L 80.6125,46.269 L 80.8117,46.6311 L 80.9864,47.0008 L 81.1376,47.3798 L 81.2629,47.7674 L 81.3593,48.1613 L 81.4305,48.5628 L 81.4735,48.9695 L 81.4857,49.3788 L 81.4706,49.7963 L 81.4233,50.2155 L 80.3489,50.0749 L 80.3878,49.7241 L 80.4029,49.3788 L 80.3907,49.0337 L 80.3561,48.6952 L 80.2977,48.3621 L 80.2141,48.0324 L 80.11,47.709 L 79.9842,47.3902 L 79.8351,47.0767 L 79.6655,46.7708 L 79.4762,46.4691 L 79.2656,46.1762 L 79.0344,45.8904 L 78.7854,45.6123 L 78.5172,45.3445 L 78.2304,45.0854 L 77.9257,44.8355 L 77.6059,44.5954 L 77.2676,44.3675 L 76.9154,44.1504 L 76.5479,43.9465 L 76.1638,43.7544 L 75.7681,43.5765 L 75.359,43.4114 L 74.9375,43.2616 L 74.5041,43.1257 L 74.0595,43.006 L 73.6044,42.903 L 73.1416,42.8154 L 72.6675,42.7436 L 72.1849,42.6901 L 71.6945,42.6555 L 72.2317,41.961 L 72.2317,41.961 z M 71.2167,42.3264 L 70.9195,41.5881 L 71.7539,41.6319 L 71.2167,42.3264 L 71.2167,42.3264 z "
              style="fill:#000000;fill-rule:nonzero" />
      </g>
    </g>
  </g>
</svg>