<svg xmlns="http://www.w3.org/2000/svg" width="744.098" height="910.864" viewBox="0 0 210 297"><defs id="prefix__defs4"><style type="text/css" id="style6">.prefix__fil0{fill:#0a0b0c}.prefix__fil3{fill:#f8c300}.prefix__fil5{fill:#fff}.prefix__fil2{fill:#000;fill-rule:nonzero}</style></defs><g id="prefix__Warstwa_x0020_1" transform="matrix(1.1552 0 0 1.1552 -16.312 -23.027)"><path class="prefix__fil0" d="M0 19.967h209.972v206.351c.524 13.705-6.013 27.322-23.705 28.853h-50.001c-13.258 0-27.174 10.766-31.35 21.862-3.54-9.434-15.78-21.353-29.244-21.862H25.877C8.797 253.2.161 240.888 0 226.272V19.967z" id="prefix__path10" fill="#0a0b0c"/><path d="M2.437 22.491h205.101v202.05c.804 14.505-5.601 28.222-23.155 28.25h-48.841c-11.935.151-24.68 8.713-30.562 18.596-5.151-8.724-17.154-18.39-28.626-18.595h-48.64c-17.1-.253-25.36-13.011-25.276-28.296V22.492z" id="prefix__path12" fill="#da251d"/><g id="prefix___76856840"><path id="prefix___76847304" class="prefix__fil0" d="M76.174 152.226c26.395-11.714 22.469-38.481-.48-44.173-5.497-2.434-13.786-.371-15.4-9.074 1.527-.66 8.769 3.506 20.069 2.64-4.32-3.919-7.94-2.805-11.693-2.846-4.712-3.465-9.467-6.888-18.455 0-4.057-11.508-3.97-20.252 10.515-19.468l16.142.701c1.266-3.753 2.88-5.197 5.367-6.64L69.63 40.452c4.188 1.073 8.857.908 12.609 7.3 9.336-3.505 14.04 6.741 6.406 12.598-2.298-1.898-7.688-2.605-5.199 2.121 1.816 3.446 5.053 6.285 10.921-.365 1.789 4.124 7.984 4.454 10.776-.248-.96-3.217-2.574-4.083-5.366-.866-3.284-2.183-4.59-4.93-4.676-7.51-.16-4.814 2.857-8.026 7.948-7.957.218-4.29 1.57-7.754 4.887-9.692 3.83 2.647 6.61 6.24 7.242 10.6 10.82-.701 7.764 7.727 2.529 14.162-1.495-2.143-3.905-3.798-5.525-1.697-1.614 2.092-.604 3.468 1.34 5.067 2.845 2.34 5.98.734 9.116-1.2 2.045.975 3.968 1.758 5.597 2.095 5.553 1.149 6.703-6.147 3.409-6.911-1.598-.37-3.618 1.06-4.262 2.867-7.105-9.047-.026-14.36 7.647-13.517 1.876-3.918 4.45-7.177 13.088-5.32l-13.394 32.335 8.944-.948c-1.876 5.733-4.275 8.043-6.762 9.692l6.544-.412c.262 3.217-.916 5.32-3.752 6.186-.087 4.249 3.883 6.806 4.45 11.26 1.658 16.292-8.202 33.285 3.054 45.494-2.443 1.32-4.843 2.35-7.242 1.32 3.403 16.291 10.776 29.325 19.153 41.533-1.746 2.929-4.276 2.021-6.545 2.186 8.508 9.775 18.368 14.766 7.94 36.914l-8.638-2.02c-7.94 4.206-15.88 2.804-23.82-2.393-5.629 2.434-11.126 5.65-17.321 2.392-8.377 4.455-14.223 2.846-18.891-1.526-5.061 4.166-10.471 3.919-16.143.454-5.89 3.01-11.561 3.258-16.84-1.32-2.4 1.856-4.276 1.237-6.065.206-2.268.908-4.493 2.64-6.762 1.32-3.01-16.745.436-31.181 12.39-42.606l-.96-6.434c10.515.619 16.1-9.239 21.728-18.973-1.484-.866-3.316-1.32-3.01-4.413z" fill="#0a0b0c"/><g id="prefix__g16"><path id="prefix___76847232" class="prefix__fil2" fill="#000" fill-rule="nonzero" d="M51.612 95.249v-.458.458l-.04-.001-.035.001H51.453l-.023-.001h-.019l-.014.001h-.037v-.458H51.492l.02-.001h.059l.021.001h.02v.458l-.022-.001-.019.001h-.059l-.018-.001h-.018l-.018.001h-.098v-.458h.053l.019.001.021-.001h.084l.035.001.04-.001v.458z"/></g><path class="prefix__fil3" d="M51.175 96.092c-2.53-7.589-3.403-15.137 7.94-14.766L76.873 82.4c1.185 10.381 14.245 17.55 16.316 26.346 1.317 5.593-3.886 4.55-6.707 2.242-8.02-6.566-23.865-5.468-23.657-10.028 6.195 2.722 15.619.784 25.479 5.32-4.8-5.196-5.846-9.692-18.935-9.28-7.242-4.867-13.394-4.248-18.193-.907z" id="prefix__path19" fill="#f8c300"/><path d="M85.947 82.192a14.744 14.744 0 011.968-.525c-.2.729.399 2.112 1.22 2.363-.261-1.15-.09-1.967.127-2.557 1.62-.153 3.284-.018 4.844.513-1.658 4.001-7.374 5.032-8.159.206z" id="prefix__path21" fill="#fff"/><path class="prefix__fil5" d="M142.227 104.836c.698-5.486-2.618-10.022-5.453-14.394-6.37.618-13.307 4.207-19.459.99 6.675-1.568 14.092-.413 20.244-3.63 2.661-1.691 2.53-3.217-.698-2.392-2.574.412-11.43-3.052-5.061-2.846 3.534-.165 9.118-5.403 7.94-6.888-7.198 1.69-14.528.577-21.683-.536-11.474-1.197-23.036-.701-34.51-.124-2.661.866-7.766 7.218-2.225 5.94 5.06-3.053 10.994-1.238 16.317-.083 7.678 1.443 15.532 1.773 23.297 1.732-7.286 3.588-15.706 1.732-23.384.536-2.138 6.063-12.303 6.393-13.743-.247-3.534.577-4.45 3.175-2.182 6.021 4.145 7.383 13.133 12.456 14.092 21.283-.324 1.89-1.24 3.42-3.315 4.29 6.02 6.433 7.416 16.291 2.879 23.839-3.316 6.063-8.726 10.847-14.528 14.724 5.06 3.465 11.474.578 13.7-4.495.872-.495-1.222 6.599-4.364 7.052-4.842.908-8.682 1.815-10.427 6.806-4.145 5.774-7.635 13.652-15.532 15.467-6.5.618 4.581 7.63 8.203 4.248 6.587-2.516 9.554-8.826 13.743-13.735 1.701-2.186 3.446-4.371 5.148-6.599-5.323 6.517-5.847 15.88-1.135 22.809 1.658 2.97 4.669 7.547 5.672 1.773 2.4-7.836.523-16.621 4.93-23.963.523-1.939 6.02-8.868 4.974-3.588-4.276 5.485-5.454 12.332-5.934 18.972-.436 4.042-1.134 8.208-3.49 11.673 8.813-3.548 11.867-13.116 13.874-21.2.567-2.681.174 4.867 1.221 6.393 1.57 5.692 5.672 10.476 10.471 14.064-3.534-8.29 2.443-16.498 4.145-24.54.785-2.31.349-8.456 1.483-2.929 1.658 9.239-6.937 17.818-3.228 26.974 8.07-5.073 10.82-14.765 10.165-23.51-.087-3.753-.436-7.547-.654-11.3 2.923 10.27 5.322 21.158 11.866 30.067 1.658 4.248 13.874 5.486 7.897-.124-7.591-11.3-12.914-23.84-16.186-36.831-2.4-5.94-4.406-12.539-2.225-18.808 1.004 5.65.829 11.879 4.232 16.787 2.443 2.433 6.151.165 2.574-2.186-5.017-9.24-2.705-19.963-.48-29.573.48-2.64.96-5.28.829-7.919zm-39.09 21.901c.392-6.104-2.662-12.085-7.418-16.168 2.662 3.712 4.189.248 2.749-2.928-1.309-2.475-4.93-7.466-.131-3.547 4.188 3.918 1.047 10.146 5.54 13.775 1.615 2.846.743 6.146-.74 8.868z" id="prefix__path23" fill="#fff"/><path d="M61.733 221.93c3.49 3.382 9.293 2.227 12.74.577-.611-2.392-1.047-4.908-4.581-4.702-.175 1.856-.087 4.62-.785 4.867-1.79.165-.742-2.97-.96-4.702-1.964-.247-5.672 1.609-6.414 3.96z" id="prefix__path25" fill="#f4f4ec"/><path d="M94.062 220.858c4.014 5.197 11.256 4.66 14.048 1.402-1.789-1.69-3.577-4.454-5.628-5.155-.305 1.856-.13 4.495-.873 5.032-1.92-.042-.697-3.63-.96-5.692-2.704-.041-4.493 2.846-6.587 4.413z" id="prefix__path27" fill="#faf6f7"/><path d="M130.186 218.961c5.584 5.444 11.867 7.507 18.28 3.836-1.788-2.557-6.544-4-9.816-5.98-.698 1.525-.305 3.505-.916 4.124-.567.041-.96-2.351-1.396-4.372l-1.92-2.186c-1.44.165-3.054 2.557-4.232 4.578z" id="prefix__path29" fill="#fdfcfa"/><path class="prefix__fil5" d="M93.015 190.708c-4.45-4.33-7.286-9.363-9.118-14.93-6.152 8.702-14.093 10.145-22.818 8.62-7.155 6.599-13.961 18.683-12.74 37.326 1.222.083 2.356-.041 3.229-1.155 7.068-20.457 12.347-22.85 21.203-29.985-9.685 7.218-15.052 17.818-19.24 29.367 1.44 1.98 3.621 1.32 6.065-.083 9.423-2.598 9.423-11.837 15.662-15.302-2.967 8.002-5.497 13.405 7.024 19.262-4.799-11.631-4.58-16.746-1.003-23.551-1.527 10.517.829 18.56 5.933 24.128 3.621-5.403 9.031-4.66 12.434-13.075 1.658-11.466 5.061-13.322 7.024-20.375-5.977 14.766-6.108 30.233 9.773 33.45-3.228-9.981-5.148-15.797 2.225-23.674-4.799 7.96-3.316 14.518.131 23.427 4.581-1.98 9.206-7.342 13.787-11.054.61-4.66-2.967-9.445-1.353-13.198 4.014 2.68.305 16.621 25.043 21.57-3.665-8.537-21.465-16.497-22.207-30.644 6.719 20.045 19.415 19.344 24.65 30.191 5.366-1.279 4.755-13.198 1.134-17.86-4.668-11.548-16.622-15.672-23.08-31.222-1.744 9.446-5.976 14.725-11.342 17.942-8.595 1.196-12.042-5.114-15.925-10.847-4.58 5.568-7.897 13.404-16.491 11.672z" id="prefix__path31" fill="#fff"/><g id="prefix__g33"><path class="prefix__fil3" d="M71.724 42.144l12.652 31.428 49.65-.37 12.346-29.986c-3.36-1.031-8.464-1.402-10.689 5.98-10.122-4.124-13.001 6.806-8.464 10.6 2.313-5.444 7.592-2.515 7.46.702-.174 3.794-3.926 8.455-11.692 3.175-2.192 3.125-7.097 3.587-10.075 1.074-1.315-1.11-3.212-3.484-2.252-5.277 1.31-2.447 4.802-4.55 6.83.368 7.068-6.64 4.145-15.962-5.279-11.384 3.01-3.217-1.221-8.991-4.057-11.053-2.313 2.185-5.628 5.526-3.36 10.022-10.907-4.083-10.121 11.59-4.406 12.538 2.269-5.155 6.631-2.433 5.017 2.269-.785 4.248-8.443 4.953-10.974 1.076-2.628 3.68-6.06 4.297-8.69 2.817-2.273-1.28-5.069-5.107-3.327-7.634 1.213-1.76 3.364-2.364 5.496.689 8.77-7.507-1.09-15.673-7.024-9.033.61-4.124-3.665-7.713-9.162-8.001z" id="prefix__path35" fill="#f8c300"/><path id="prefix__1" class="prefix__fil2" d="M84.38 74.084l-.511-.329-12.652-31.429 1.015-.365L84.884 73.39l-.503.694zm0 0l-.377.003-.134-.332.512.33zm50.15-.698l-.5.327-49.65.371-.008-1.023 49.65-.372.509.697zm0 0l-.133.324-.367.003.5-.327zm12.01-30.658l.337.673-12.346 29.985-1.011-.37 12.347-29.985.673-.303zm0 0l.545.168-.208.505-.337-.673zm-11.071 6.94l.429-.943-.737.331.223-.688.242-.647.256-.605.273-.563.29-.525.304-.486.318-.449.33-.412.345-.379.354-.341.366-.31.377-.279.383-.243.39-.216.399-.186.4-.156.406-.13.406-.103.405-.082.407-.057.406-.036.4-.016.398.002.395.017.389.033.385.046.375.06.37.067.36.08.352.086.342.092.333.098-.336.976-.307-.09-.316-.088-.323-.079-.33-.071-.336-.064-.342-.052-.342-.042-.346-.029-.348-.017-.35-.001-.351.016-.347.031-.347.05-.346.066-.342.087-.338.11-.336.132-.33.154-.328.179-.323.207-.317.234-.312.263-.307.297-.298.327-.292.364-.283.4-.274.438-.261.476-.252.52-.24.56-.224.604-.21.651-.737.331zm.737-.33l-.17.561-.567-.23.737-.332zm-9.49 10.268l1.007.381-.862.193-.445-.414-.396-.454-.346-.488-.297-.519-.247-.542-.202-.563-.154-.581-.107-.593-.061-.6-.014-.606.029-.607.079-.604.121-.599.17-.585.216-.573.26-.554.311-.53.358-.504.405-.47.455-.434.5-.393.55-.345.597-.294.642-.237.685-.174.73-.109.768-.039.808.033.847.11.887.187.924.27.964.356-.43.943-.89-.33-.848-.248-.798-.171-.753-.097-.707-.029-.662.035-.615.093-.575.146-.532.196-.49.242-.456.285-.416.325-.378.362-.341.398-.303.427-.264.454-.227.477-.187.497-.147.513-.11.523-.065.532-.03.534.014.533.053.528.094.517.133.501.172.486.213.463.25.434.288.408.324.373.363.338-.862.193zm1.007.381l-.287.674-.576-.481.862-.193zm7.498.533l-1.083-.044v.004l-.003-.255-.03-.249-.05-.246-.077-.245-.098-.239-.12-.233-.14-.224-.159-.215-.176-.203-.19-.19-.206-.177-.219-.16-.228-.143-.238-.123-.243-.106-.25-.081-.256-.062-.256-.038-.256-.014-.262.01-.257.037-.26.065-.26.09-.258.123-.255.157-.257.19-.253.231-.247.27-.243.314-.234.359-.222.408-.213.456-1.006-.381.238-.516.26-.47.277-.426.293-.382.312-.338.325-.295.338-.256.352-.212.36-.17.366-.132.37-.089.373-.052.367-.015.367.019.358.053.349.082.339.114.328.137.315.164.3.187.282.208.266.229.25.246.226.264.206.28.183.295.158.306.131.319.102.329.073.339.038.345.003.347v.004zm0-.004v.004l-.001.03.001-.034zm-11.781 3.44l-.905-.566.769-.132.697.454.672.396.646.343.62.292.596.24.568.195.543.148.515.108.491.066.466.029.443-.008.416-.04.394-.07.373-.099.35-.125.332-.15.31-.175.293-.197.272-.218.255-.236.237-.255.22-.272.198-.286.18-.3.163-.312.142-.319.122-.325.103-.332.084-.336.063-.334.045-.335.025-.33 1.083.045-.029.386-.05.387-.075.39-.097.388-.12.384-.143.382-.167.375-.189.364-.214.355-.24.343-.263.328-.288.311-.314.293-.34.27-.366.245-.39.219-.417.19-.44.158-.462.123-.487.086-.51.048-.528.007-.55-.033-.572-.077-.592-.12-.61-.168-.632-.215-.65-.265-.673-.315-.692-.368-.715-.424-.735-.478.769-.133zm-.905-.566l.311-.443.458.311-.769.133zm-9.983 1.738l.721-.762.262.206.272.194.279.176.288.161.293.144.303.13.307.114.315.096.317.084.32.066.325.052.325.037.327.02.329.005.328-.01.324-.026.322-.04.322-.058.314-.07.31-.086.307-.102.298-.116.293-.13.284-.144.276-.16.265-.174.255-.189.245-.202.234-.218.222-.23.207-.246.194-.26.905.566-.233.312-.25.291-.263.278-.277.258-.292.242-.306.225-.316.206-.326.188-.336.173-.343.154-.354.136-.357.118-.366.101-.37.083-.372.065-.377.048-.38.03-.379.011-.38-.005-.381-.025-.38-.04-.377-.06-.376-.079-.371-.095-.366-.117-.362-.133-.354-.151-.349-.172-.339-.189-.33-.208-.318-.226-.308-.247zm-2.376-5.888l.968.461-.063.132-.05.133-.04.135-.027.14-.016.143-.008.146.006.151.015.154.023.155.037.159.044.16.053.164.064.164.07.165.078.164.085.166.094.164.098.162.104.161.11.16.112.155.116.153.121.152.123.146.123.14.126.137.124.134.126.126.122.12.124.115.119.107.117.102-.722.762-.134-.113-.136-.123-.136-.128-.14-.135-.139-.143-.14-.145-.14-.153-.139-.16-.136-.163-.133-.167-.133-.173-.13-.18-.123-.18-.12-.185-.115-.19-.107-.192-.102-.195-.095-.2-.087-.2-.077-.205-.07-.207-.056-.21-.045-.21-.036-.216-.02-.214-.006-.215.008-.218.025-.216.044-.216.06-.216.081-.213.1-.207zm0 0zm6.932.234l.764.727-.887-.176-.184-.42-.192-.376-.192-.336-.2-.297-.198-.26-.2-.22-.2-.19-.197-.157-.194-.128-.193-.1-.19-.076-.187-.052-.188-.033-.188-.013-.19.007-.193.024-.192.041-.195.057-.196.077-.195.09-.196.11-.192.123-.189.137-.186.15-.179.164-.174.172-.166.182-.16.19-.148.195-.14.202-.13.205-.117.208-.968-.461.142-.249.152-.245.165-.238.178-.235.189-.226.2-.218.209-.209.22-.196.23-.186.239-.173.248-.159.255-.141.267-.127.272-.105.28-.086.29-.06.294-.037.298-.007.302.022.303.052.301.085.297.116.29.152.284.184.273.217.264.25.255.285.245.316.233.353.227.389.212.424.206.463-.888-.177zm.764.727l-.587.552-.3-.728.887.176zm-6.066-12.086l.81.678-.653-.794.896-.404.86-.324.826-.245.789-.173.756-.1.715-.03.682.039.642.106.6.171.556.236.51.292.457.349.406.398.35.443.295.483.24.52.184.55.13.579.076.604.019.622-.034.642-.087.658-.142.671-.199.68-.254.687-.308.69-.365.692-.423.688-.479.685-.537.677-.597.666-.655.65-.764-.727.612-.61.555-.618.499-.628.444-.633.39-.636.334-.635.283-.63.23-.623.177-.612.129-.598.079-.582.03-.562-.02-.542-.063-.511-.108-.483-.151-.453-.193-.416-.232-.383-.273-.343-.309-.305-.35-.265-.387-.224-.429-.18-.473-.135-.518-.086-.563-.034-.613.026-.655.087-.703.153-.746.225-.792.297-.832.375-.654-.795zm.654.795l-2.563 1.245 1.909-2.04.654.795zm-3.922-11.146l-.769-.727.716-.042.285.216.29.235.293.256.297.272.297.29.296.305.296.32.29.335.288.349.28.358.273.37.266.38.253.39.24.396.227.402.211.41.194.414.173.417.155.42.133.424.108.426.082.424.054.426.021.422-.008.42-.044.416-.082.411-.122.404-.162.395-.207.38-.25.366-.295.35-.811-.679.227-.269.19-.278.156-.292.125-.299.092-.31.064-.323.036-.333.009-.343-.022-.353-.045-.358-.07-.368-.094-.37-.117-.375-.138-.377-.16-.38-.177-.378-.194-.375-.21-.373-.223-.369-.236-.361-.245-.355-.256-.347-.263-.338-.27-.325-.274-.314-.275-.3-.279-.285-.275-.27-.273-.253-.27-.232-.262-.214-.254-.192.715-.042zm-.769-.727l.337-.318.379.276-.716.042zm-3.174 10.864l.399-.956-.69.699-.207-.444-.176-.44-.145-.432-.114-.428-.082-.422-.055-.414-.028-.41-.001-.398.021-.394.048-.388.071-.378.09-.37.109-.363.127-.354.144-.346.16-.336.173-.328.184-.32.197-.312.204-.303.213-.295.22-.288.227-.28.232-.27.233-.263.236-.255.237-.248.236-.242.234-.233.23-.223.228-.22.22-.21.768.727-.22.206-.22.211-.225.22-.226.225-.226.229-.225.236-.223.243-.22.248-.215.254-.21.26-.203.263-.196.27-.188.277-.175.28-.167.287-.152.291-.14.297-.126.301-.11.306-.096.311-.077.318-.058.322-.04.327-.022.334.002.342.023.346.047.354.073.36.097.368.125.377.154.383.186.392-.69.699zm.69-.699l.595 1.18-1.285-.481.69-.699zm-5.398 12.563l1.002.393-.594.31-.61-.154-.57-.245-.526-.327-.48-.394-.436-.457-.39-.508-.345-.556-.303-.594-.26-.63-.217-.658-.172-.678-.129-.696-.082-.706-.033-.71.014-.708.062-.702.116-.69.17-.673.226-.648.284-.617.346-.579.41-.532.476-.482.545-.417.611-.346.678-.266.739-.176.799-.08.856.016.915.122.972.228 1.033.34-.4.956-.943-.312-.87-.205-.796-.105-.725-.017-.654.068-.59.14-.53.206-.475.27-.426.328-.379.382-.333.436-.287.483-.241.524-.196.56-.149.592-.103.614-.059.634-.013.644.033.646.074.641.115.632.156.614.195.59.23.557.265.522.299.476.326.428.351.369.374.31.394.242.412.177.432.109-.594.309zm1.002.393l-.167.38-.427-.07.594-.31zm5.051 2.16l-1.07-.176.02-.07.125-.405.092-.39.062-.375.036-.359.008-.344-.018-.324-.04-.302-.06-.284-.08-.263-.098-.24-.114-.217-.126-.194-.135-.169-.146-.143-.152-.121-.157-.095-.161-.075-.165-.05-.17-.03-.178-.006-.182.018-.19.042-.2.071-.207.102-.214.138-.221.174-.224.212-.223.254-.223.298-.22.342-.214.387-.206.434-1.002-.393.231-.487.244-.443.258-.402.27-.358.283-.319.291-.28.302-.238.312-.198.32-.158.325-.116.33-.074.33-.03.323.011.318.054.305.094.289.13.271.168.25.197.227.228.207.254.181.278.156.301.132.324.106.343.078.364.051.383.02.396-.01.412-.04.428-.074.442-.11.455-.142.465.02-.07zm-1.07-.176l.006-.031.013-.04-.019.07zm-9.989 1.451l-.9-.574.91.018.227.312.25.29.272.267.297.242.316.22.333.2.352.174.367.153.379.13.391.11.398.084.405.063.41.039.41.018.415-.006.406-.028.402-.05.395-.07.383-.093.373-.114.358-.135.341-.154.321-.174.302-.193.278-.209.255-.23.23-.244.2-.265.174-.28.146-.298.112-.317.081-.337 1.07.176-.106.438-.15.417-.189.394-.229.369-.264.341-.294.317-.323.29-.35.265-.37.237-.393.21-.409.186-.425.16-.437.133-.451.11-.459.082-.465.058-.471.032-.47.006-.474-.019-.473-.046-.469-.072-.465-.1-.456-.125-.447-.154-.434-.181-.42-.212-.406-.238-.384-.27-.36-.298-.34-.327-.31-.357-.277-.389.911.018zm-.9-.574l.47-.657.44.675-.91-.018zm-8.517 3.543l.552-.879.228.12.23.109.232.097.236.085.239.074.24.062.244.05.243.037.249.024.248.014h.254l.252-.014.252-.025.256-.04.256-.051.257-.067.258-.08.256-.094.26-.108.26-.123.257-.138.258-.154.26-.169.256-.187.256-.2.254-.219.25-.233.253-.252.246-.269.246-.287.24-.304.239-.322.9.574-.26.35-.265.333-.268.315-.276.297-.277.28-.285.265-.287.246-.291.23-.295.21-.297.197-.3.178-.305.162-.306.147-.306.129-.312.113-.31.096-.311.08-.312.063-.31.047-.312.033-.311.014h-.306l-.307-.014-.304-.032-.303-.045-.299-.061-.295-.075-.29-.09-.287-.104-.283-.118-.277-.132-.27-.145zM81.96 58.21l.909.558-.125.203-.106.205-.082.211-.064.22-.044.221-.027.23-.008.236.008.24.025.244.043.25.058.25.075.251.088.255.103.254.114.253.129.252.14.25.15.247.16.241.17.238.176.23.184.226.19.218.192.21.2.2.2.19.201.179.205.168.2.155.202.143.197.13.193.115-.552.88-.236-.14-.235-.154-.235-.167-.235-.18-.23-.191-.23-.204-.227-.214-.22-.224-.219-.233-.21-.242-.205-.25-.198-.26-.187-.265-.18-.273-.171-.279-.158-.282-.146-.289-.135-.293-.12-.298-.105-.299-.088-.304-.07-.306-.053-.306-.033-.308-.012-.308.012-.308.036-.306.061-.306.089-.3.117-.296.143-.29.176-.278zm5.587.588l.726.76-.815-.097-.19-.262-.186-.238-.185-.218-.184-.196-.18-.177-.179-.157-.173-.139-.17-.12-.165-.102-.162-.088-.157-.07-.151-.056-.148-.042-.142-.03-.139-.019-.136-.007-.133.005-.133.015-.127.024-.128.032-.128.045-.127.053-.124.064-.125.072-.124.084-.12.093-.12.103-.118.11-.113.12-.112.128-.107.137-.103.143-.91-.558.13-.18.136-.172.142-.165.151-.156.156-.15.162-.139.172-.13.175-.119.184-.109.192-.096.196-.084.203-.07.21-.056.216-.04.217-.022.223-.005.225.01.228.03.227.047.228.066.228.084.226.103.224.12.225.138.22.157.221.174.217.194.218.212.214.232.214.25.213.271.21.29-.815-.097zm.726.76l-.468.4-.347-.497.815.096zm-7.924-9.483l1.074.14-.95-.401.6-.614.624-.528.645-.446.66-.363.674-.285.677-.204.676-.13.674-.056.66.012.647.082.628.144.6.208.575.265.539.318.5.372.457.418.412.466.358.508.302.548.24.583.176.615.104.644.03.665-.045.69-.13.707-.215.72-.304.728-.396.734-.491.738-.59.739-.69.736-.797.73-.726-.76.74-.68.636-.677.535-.67.44-.662.35-.65.265-.636.185-.619.11-.598.04-.578-.025-.56-.088-.533-.145-.506-.198-.479-.248-.447-.294-.416-.335-.381-.377-.346-.41-.304-.442-.262-.468-.216-.494-.168-.513-.12-.529-.066-.545-.013-.55.048-.562.106-.563.173-.562.237-.563.31-.556.382-.548.464-.533.545-.951-.401zm.951.401l-1.211 1.356.26-1.757.951.401zm-9.068-8.515l-1.015.365.537-.694.533.038.525.058.516.076.51.095.498.115.487.132.476.148.463.166.452.181.438.198.422.212.41.228.395.241.377.256.362.269.343.282.325.295.306.308.287.318.266.33.244.341.224.35.199.362.174.37.152.379.125.387.096.394.072.402.043.406.012.41-.015.417-.048.42-1.074-.141.039-.35.015-.346-.012-.345-.035-.339-.058-.333-.084-.33-.104-.323-.126-.319-.149-.313-.17-.306-.189-.302-.21-.293-.232-.286-.249-.278-.268-.268-.287-.259-.304-.25-.32-.24-.338-.227-.353-.218-.367-.203-.384-.193-.396-.177-.409-.166-.421-.15-.434-.135-.445-.12-.455-.103-.462-.088-.474-.071-.483-.054-.49-.034.537-.695zm-1.015.365l-.297-.738.834.044-.537.694z" fill="#000" fill-rule="nonzero"/></g></g></g></svg>